<svg width="12" height="15" viewBox="0 0 12 15" fill="none" xmlns="http://www.w3.org/2000/svg">
<path d="M11.3294 7.44473C11.3328 7.70328 11.279 7.95939 11.1719 8.19473C11.0594 8.44373 10.8869 8.65973 10.6694 8.82473L3.4319 14.4572C3.17711 14.6515 2.87326 14.771 2.5544 14.8022H2.3819C2.12119 14.8023 1.86416 14.7406 1.6319 14.6222C1.35006 14.4838 1.11154 14.2708 0.942289 14.0064C0.773035 13.7419 0.679515 13.4361 0.671896 13.1222V2.62223C0.670341 2.31229 0.756116 2.00818 0.919396 1.74473C1.07741 1.48131 1.30374 1.26554 1.57442 1.12029C1.8451 0.975052 2.15003 0.90575 2.4569 0.919734C2.7659 0.934734 3.0659 1.03073 3.3269 1.19723L10.5719 6.02723C10.7924 6.18023 10.9769 6.37973 11.1119 6.61223C11.2544 6.86723 11.3294 7.15298 11.3294 7.44473Z" fill="#0C0C0C"/>
</svg>
