<svg width="143" height="24" viewBox="0 0 143 24" fill="none" xmlns="http://www.w3.org/2000/svg">
<path d="M32.4013 22.1381C28.0591 22.1381 23.6562 19.1017 23.6562 14.4558C23.6562 9.81004 28.0591 6.7432 32.4013 6.7432C36.7434 6.7432 41.1463 9.81004 41.1463 14.4558C41.1463 19.1017 36.7434 22.1381 32.4013 22.1381ZM26.7838 14.4558C26.7838 17.2494 29.4559 19.2231 32.4013 19.2231C35.2252 19.2231 38.0188 17.2798 38.0188 14.4558C38.0188 11.5408 35.2556 9.62785 32.4013 9.62785C29.4559 9.62785 26.7838 11.5712 26.7838 14.4558Z" fill="white" fill-opacity="0.83"/>
<path d="M43.2273 0.882812H46.3548V9.05092C46.7496 8.77764 48.5411 6.71284 51.9419 6.71284C57.0432 6.71284 60.7173 10.2048 60.7173 14.3344C60.7173 18.6765 56.7699 22.1078 51.8812 22.1078C47.205 22.1078 43.2576 18.9802 43.2576 14.6684H43.2273V0.882812ZM51.9723 9.47603C48.784 9.47603 46.3548 11.6319 46.3548 14.5469C46.3548 17.3405 48.8447 19.1927 51.9419 19.1927C55.1606 19.1927 57.6201 17.2494 57.6201 14.4255C57.6201 11.7837 55.2213 9.47603 51.9723 9.47603Z" fill="white" fill-opacity="0.83"/>
<path d="M67.8708 23.1705L61.4639 6.7432H64.7736L68.63 16.6725L72.7292 8.50436L76.8284 16.6725L80.6848 6.7432H83.9945L77.6179 23.1705L72.6988 13.5753L67.8708 23.1705Z" fill="white" fill-opacity="0.83"/>
<path d="M89.6286 22.1381H86.2885V0.882812H89.6286V9.53676C90.1144 8.68655 92.3311 6.77357 95.7623 6.77357C101.38 6.77357 103.141 10.8424 103.141 15.3061V22.1381H99.8008V15.6401C99.8008 12.2089 98.5862 9.56712 95.2764 9.56712C92.908 9.56712 89.6286 10.9943 89.6286 15.5186V22.1381Z" fill="white" fill-opacity="0.83"/>
<path d="M105.499 14.4255C105.499 10.2048 109.416 6.71284 114.244 6.71284C118.981 6.71284 122.868 10.2655 122.868 14.7291V15.5793L110.054 14.6077L119.558 13.6056C119.224 11.7837 117.281 9.59749 114.366 9.59749C111.269 9.59749 108.657 11.6319 108.657 14.5166C108.657 16.6725 110.783 19.1927 114.366 19.1927C116.977 19.1927 118.435 17.8567 119.072 16.8547L122.291 17.4316C120.925 20.2859 117.919 22.1078 114.396 22.1078C109.447 22.1078 105.499 18.6765 105.499 14.4255Z" fill="white" fill-opacity="0.83"/>
<path d="M125.159 14.4255C125.159 10.2048 129.076 6.71284 133.904 6.71284C138.641 6.71284 142.528 10.2655 142.528 14.7291V15.5793L129.714 14.6077L139.218 13.6056C138.884 11.7837 136.941 9.59749 134.026 9.59749C130.929 9.59749 128.317 11.6319 128.317 14.5166C128.317 16.6725 130.443 19.1927 134.026 19.1927C136.637 19.1927 138.095 17.8567 138.732 16.8547L141.951 17.4316C140.585 20.2859 137.579 22.1078 134.056 22.1078C129.107 22.1078 125.159 18.6765 125.159 14.4255Z" fill="white" fill-opacity="0.83"/>
<path d="M10.6589 1.49219V6.35054H16.7318V12.4235C16.7318 14.549 16.7318 19.1037 10.9626 19.4074C5.4969 19.4074 4.28231 14.8527 4.28231 12.7271H0.03125C0.03125 18.8001 4.28231 23.6584 11.2662 23.6584C18.2501 23.6584 21.5902 17.8891 21.5902 14.549V1.49219H10.6589Z" fill="white" fill-opacity="0.83"/>
<rect x="3.67969" y="5.74219" width="7.28753" height="7.28753" fill="#D0FF00"/>
</svg>
